<?xml version="1.0" encoding="utf-8" ?><svg xmlns="http://www.w3.org/2000/svg" xmlns:xlink="http://www.w3.org/1999/xlink" width="754" height="126" viewBox="0 0 754 126"><path d="M565.59 49.4816C587.343 47.0571 590.57 77.8834 571.084 82.0318C568.012 82.6 564.839 82.1514 562.044 80.754C550.79 75.1286 550.599 57.1364 561.562 51.0771C562.818 50.383 564.23 49.9327 565.59 49.4816ZM571.072 78.1811C574.282 76.9958 576.889 74.5817 578.319 71.4708C579.755 68.3066 579.783 64.0629 578.559 60.8283C577.49 57.9214 575.297 55.5668 572.475 54.2936C570.43 53.3834 568.566 53.4328 566.374 53.5071C565.396 53.9313 563.914 54.5313 563.099 55.1712C555.679 60.9929 556.245 73.9084 565.485 77.6082C567.245 78.3128 569.233 78.2113 571.072 78.1811Z"/><path d="M242.068 49.7959C250.039 48.5617 257.037 54.9271 258.606 62.4845C259.529 66.9434 258.653 71.5864 256.17 75.4019C253.632 79.2499 250.477 81.0473 246.074 81.9416C245.946 81.973 245.817 82.0017 245.687 82.0275C242.49 82.664 238.469 81.4859 235.794 79.696C232.344 77.4172 229.956 73.8447 229.169 69.784C227.288 60.2489 232.355 51.6765 242.068 49.7959ZM245.495 75.4912C248.338 74.1466 250.36 72.8526 251.276 69.7224C253.356 62.6105 249.804 55.8004 241.873 56.451C231.713 61.5391 234.846 76.3345 245.495 75.4912Z"/><path d="M297.748 50.1909C310.343 50.04 325.848 49.0606 324.847 68.3032C324.624 72.5997 321.962 76.0957 318.605 78.7063C313.099 82.6925 304.342 81.8066 297.613 81.8296C297.634 80.3698 297.616 78.5922 297.733 77.1604C297.892 75.2205 298.991 76.5743 300.24 75.6417C300.184 72.0323 300.504 58.9249 299.768 56.3865C299.022 56.2154 298.877 56.0735 298.319 55.5712C297.478 54.1066 297.71 51.9261 297.748 50.1909ZM307.038 76.3315C310.541 75.9079 312.491 75.8582 315.122 73.239C320.736 65.7572 317.251 56.0355 306.973 55.8591C306.993 62.6528 306.948 69.5476 307.038 76.3315Z"/><path d="M659.981 49.877C667.769 49.7485 675.608 49.9432 683.401 49.8423C686.521 49.8019 689.908 49.677 692.983 50.0938C693.635 50.5489 693.692 51.0912 693.901 51.8603C693.077 53.6837 690.876 53.3854 691.464 55.6362C693.311 62.7095 697.667 71.091 698.743 78.2476C701.487 71.1588 703.658 63.8321 706.527 56.7777C706.863 55.9501 707.111 54.9948 707.304 54.1196L706.979 53.7295L704.979 53.7611L704.6 53.3007C704.576 52.2567 704.475 51.1489 704.879 50.1898C706.219 49.6753 713.526 49.6645 714.848 50.2472C715.36 51.1285 715.104 52.8374 714.46 53.6111L712.993 53.5079C711.548 54.8525 703.201 77.9016 702.181 81.5464L696.116 81.6398C694.581 77.9463 693.085 73.2211 691.69 69.3499C690.299 65.7381 687.7 55.8611 685.156 53.9443C683.869 53.6747 684.326 53.6818 682.989 54.1545C681.994 55.502 682.306 57.0905 682.292 58.986L678.048 59.1718L677.967 53.7064C674.737 53.9021 670.137 53.7225 666.807 53.6856L666.722 63.7233C669.826 63.685 674.206 63.1589 676.76 64.965L676.727 66.2264C674.447 67.9048 669.555 67.3938 666.764 67.262L666.777 77.9149C670.353 78.0277 674.426 77.9302 678.041 77.9281C677.953 75.9466 677.555 74.1763 678.744 72.77C680.357 72.3053 680.925 72.6643 682.035 73.7457C682.806 75.6575 682.349 79.3881 682.247 81.667C679.018 81.5573 660.796 82.0786 659.747 81.1496C659.489 80.0444 659.49 79.8161 659.641 78.6899C660.826 77.3423 660.742 78.7403 662.504 77.6233C662.777 76.1866 662.655 55.3569 662.328 53.9684C660.853 53.6152 660.08 53.6896 659.407 52.355C659.503 51.2052 659.535 50.9375 659.981 49.877Z"/><path d="M628.303 49.8757C636.529 49.7364 646.486 48.3288 651.868 55.8504C654.513 59.5374 655.602 64.1182 654.898 68.6021C654.095 73.4431 651.911 76.4431 648.04 79.2132C647.445 79.5257 646.227 80.097 645.687 80.3558C642.964 81.6612 630.963 82.2361 628.671 81.3119C627.983 80.6162 627.9 80.4605 627.778 79.4909C628.442 78.2546 629.748 77.9847 631.116 77.5264C631.515 76.063 631.313 55.5197 630.684 53.9429C630.028 53.8255 628.648 53.5934 628.325 52.9883L628.295 52.9309C627.929 52.2461 628.205 50.6975 628.303 49.8757ZM635.476 77.9222C640.404 77.9876 643.536 78.0079 647.272 74.5978C649.717 71.49 651.109 68.1992 650.631 64.1333C650.281 61.0867 648.726 58.3075 646.313 56.4173C642.883 53.7078 639.69 53.6576 635.583 53.5916C634.944 57.3022 635.4 73.18 635.476 77.9222Z"/><path d="M283.026 50.1779C287.009 50.151 290.992 50.166 294.974 50.2231C295.117 53.718 295.745 54.5056 292.816 56.5954C292.095 62.4325 292.577 75.6847 292.656 81.888C290.786 81.7253 287.498 81.7808 285.519 81.7498C281.688 75.1797 276.004 67.7797 272.454 60.9856C272.61 65.0918 272.156 71.854 272.837 75.6473C273.774 75.8122 273.919 75.9371 274.592 76.6118C275.342 77.9666 275.068 80.163 274.999 81.7704L263.276 81.7644C263.225 80.7182 263.132 79.429 263.186 78.3972C263.305 76.1351 264.568 76.2239 265.569 75.3231C265.905 71.9064 265.743 60.135 265.527 56.2228C265.517 56.043 264.08 55.9928 263.468 55.8392C263.015 54.7018 263.208 51.5669 263.232 50.1838C266.448 50.1459 269.353 50.1387 272.564 50.2779C274.241 51.9987 284.345 68.7061 286.092 71.5116C285.336 66.3031 286.018 61.4097 285.314 56.4319C282.206 55.5653 282.897 52.8281 283.026 50.1779Z"/><path d="M379.183 49.9083C382.027 49.8512 384.871 49.8119 387.715 49.7906C393.498 49.7754 402.187 50.5506 402.434 58.5534C402.547 62.1819 401.063 63.0886 398.682 65.4501C399.255 68.8759 407.334 69.7064 399.338 79.3264C398.591 79.8457 397.421 80.6161 396.611 80.8625C394.02 81.651 380.808 82.1409 378.925 81.1677C377.415 77.513 380.449 78.6354 381.654 77.519C381.711 69.6394 381.59 62.0236 381.555 54.1639C380.746 52.836 380.76 54.4142 378.909 53.3746C378.219 52.1101 378.387 51.0225 379.183 49.9083ZM386.097 77.9779C389.308 78.05 393.586 78.5242 396.288 76.7265C401.373 66.9497 392.712 67.5516 385.987 67.6564L386.097 77.9779ZM386.13 63.7744C389.498 63.8715 393.763 64.2617 396.694 62.4835C400.463 52.2163 391.658 54.4363 386.027 53.4432L386.13 63.7744Z"/><path d="M169.116 50.1492C176.719 50.6262 185.598 49.8895 193.669 50.3949C193.963 53.0627 193.781 58.0873 193.75 60.9495C191.533 60.9245 189.227 60.9952 187.004 61.0327L186.973 56.5521L178.963 56.4511L178.949 62.7787L185.138 62.6194C185.164 64.7957 185.203 66.5388 185.419 68.7012L178.9 68.6996C179.005 70.943 178.494 73.2111 179.123 75.3026C179.893 76.1974 179.686 75.9339 181.141 76.1162L187.064 75.9353L186.998 70.4044C189.057 70.5106 191.597 70.455 193.694 70.4666C193.798 74.2301 193.794 77.9957 193.683 81.7589C185.695 81.5621 177.086 81.7147 169.05 81.7066C169.041 80.87 168.909 78.3533 169.063 77.693C169.668 75.0959 171.154 76.3001 172.091 75.6924C172.529 72.411 172.28 60.393 172.29 56.4919C172.074 56.5102 171.858 56.524 171.642 56.5332C170.247 56.5865 170.04 56.5348 169.199 55.7494C168.579 54.4798 168.993 51.6854 169.116 50.1492Z"/><path d="M152.057 49.4769C159.99 48.8272 158.928 51.7787 164.782 54.6535C164.985 54.7531 165.109 54.6709 165.692 55.0717C165.826 57.0176 165.781 59.1128 165.775 61.075L158.468 61.0058C158.314 60.1235 158.085 59.2993 157.852 58.4113C157.197 55.9182 151.903 54.6314 150.492 56.8188C148.184 60.3434 154 62.2065 156.663 62.8381C165.942 65.0387 168.512 72.4155 162.069 79.504C160.436 81.2999 157.516 81.8852 155.055 82.2575C148.773 82.4523 147.797 80.6547 143.548 76.7048C143.761 76.9028 141.83 76.2476 141.759 76.2164C141.297 75.1611 141.442 71.5733 141.443 70.2209L148.904 70.2628C150.143 76.882 156.666 77.9921 157.558 72.5158C157.841 70.7817 153.116 68.8662 151.048 68.2913C143.331 66.1458 139.694 60.7434 144.187 53.3114C145.771 50.7009 149.053 49.9543 152.057 49.4769Z"/><path d="M407.084 49.8288C416.822 49.9445 431.978 46.856 429.499 61.5477C427.929 63.6242 425.643 64.9888 425.04 65.9136C427.842 69.0445 427.814 71.5702 429.165 75.3662C430.816 80.0036 431.896 75.6445 432.551 81.6488C430.463 81.557 428.297 81.6152 426.201 81.6417C425.46 79.1153 424.857 76.245 424.256 73.6595C423.485 71.1938 423.054 70.3115 421.821 68.0275C419.255 67.1893 416.95 67.1076 414.298 66.9777C414.496 69.3631 414.132 76.841 414.408 77.7746C415.161 78.0836 415.982 78.0849 416.798 78.1407C417.346 78.8198 417.308 79.317 417.367 80.1819C417.146 80.6502 416.939 81.2993 416.446 81.3923C414.568 81.7463 408.792 81.738 407.122 81.1621C406.7 80.1393 406.711 79.8993 406.785 78.792C408.026 77.3618 408.437 78.7094 409.849 77.5801C410.329 75.7313 410.1 57.9951 409.93 54.9074C409.843 53.3171 408.72 54.2247 407.087 52.9543C406.605 51.8859 406.877 50.9679 407.084 49.8288ZM414.361 63.4244C415.933 63.3982 422.291 63.4924 423.268 62.619C429.317 57.0471 423.567 53.5171 417.727 53.6575C416.789 53.68 415.652 53.6173 414.688 53.6093L414.572 53.6084C414.057 54.8544 414.336 61.6291 414.361 63.4244Z"/><path d="M588.539 49.9052C591.542 49.8476 594.544 49.8102 597.547 49.793C603.279 49.7946 610.888 50.1437 611.25 58.1576C611.393 61.3391 608.879 63.743 606.713 65.8222C606.807 67.0049 608.41 68.2116 608.918 69.5582C609.808 71.9187 609.887 75.4142 611.217 77.4992C611.43 77.834 612.62 77.3246 613.687 78.3032C613.85 79.5989 613.855 79.8635 613.546 81.1299C612.206 81.6919 609.086 81.5542 607.494 81.5622C606.655 78.494 605.87 75.411 605.141 72.3148C604.627 70.4249 603.956 69.192 602.838 67.62C600.171 67.1693 598.239 67.0883 595.566 66.967C595.681 69.4499 595.097 76.4482 596.093 77.826C596.463 77.8538 596.833 77.8875 597.201 77.9272C598.511 78.0787 598.373 78.0785 599.06 78.9457C598.996 81.3945 597.576 81.6907 595.482 81.6431C593.02 81.587 590.542 81.5702 588.078 81.5229C588.151 80.4447 588.209 79.9027 588.442 78.8491C589.699 77.4166 589.96 78.2224 591.253 77.4357C591.774 73.1694 591.286 60.2353 591.218 55.1999C591.203 54.0507 588.987 53.9636 588.019 52.482C588.11 51.3291 588.128 50.9817 588.539 49.9052ZM595.577 63.3657C599.072 63.4298 602.657 63.8711 605.692 62.1194C609.337 53.1727 601.939 53.7013 595.552 53.6414C595.67 56.8816 595.678 60.1249 595.577 63.3657Z"/><path d="M509.066 76.3329C509.086 69.4078 509.314 61.4482 508.727 54.4922C508.614 53.1575 507.007 54.2172 505.777 53.2048C505.223 52.1416 505.069 50.8057 506.02 49.9833C508.281 49.7738 513.05 49.7557 515.23 50.1746C515.895 50.7599 515.913 51.0129 516.062 51.8617C514.687 54.389 512.97 52.4615 512.884 56.6937C512.716 64.9857 513.114 73.2828 513.001 81.564C511.363 81.4747 509.279 81.5313 507.604 81.5307C503.424 74.6584 496.363 62.3576 493.091 55.1846C493.196 62.559 492.763 69.9685 493.074 77.3607C493.728 78.4564 493.963 77.5757 495.908 78.2652C496.588 79.1723 496.532 80.3632 495.912 81.2664C494.078 81.8318 486.376 82.1109 485.437 80.2298C485.999 78.9212 487.419 78.1114 488.632 77.3356C488.907 75.4921 488.782 54.7065 488.271 53.952C487.778 53.2244 486.193 53.7028 485.424 52.3829C485.494 51.235 485.563 50.9732 485.954 49.8901C489.109 49.8561 491.443 49.8514 494.59 50.1199C499.479 58.8224 504.304 67.5603 509.066 76.3329Z"/><path d="M209.448 49.815C213.956 49.2928 216.262 50.0415 219.758 52.6945L224.465 52.7136L224.6 59.9121C223.102 59.7099 219.57 59.7186 217.919 59.6771C205.174 46.4391 197.404 73.2632 210.76 75.6926C214.283 76.3334 216.782 73.008 218.834 71.0645C220.84 71.3273 223.368 72.2323 225.342 72.8664C223.296 77.1802 220.471 80.455 215.588 81.5414C194.765 86.1744 188.587 54.8602 209.448 49.815Z"/><path d="M447.69 49.8657C449.562 49.7827 451.678 49.9029 453.571 49.9702C456.029 58.7187 460.377 67.8671 462.744 76.773C462.952 77.5557 465.68 78.1968 466.478 78.4408C466.987 79.5665 466.467 80.247 465.786 81.0525C463.191 82.347 459.222 81.7689 456.461 81.2229C455.775 80.0558 455.783 80.443 455.954 79.25C456.483 78.3713 457.574 78.002 458.517 77.5757C458.571 76.9799 456.954 71.9989 456.661 70.9352C455.576 70.82 453.197 70.8381 452.013 70.8112C449.501 70.8966 446.659 70.7891 444.121 70.7499C443.789 72.3316 442.111 76.9652 442.367 77.92C443.261 78.0871 443.856 78.0964 444.76 78.1246L445.287 78.931C445.369 80.0563 445.351 80.2679 444.709 81.1903C443.745 81.9648 436.311 81.5522 434.536 81.5167C434.511 76.2876 436.311 79.9807 438.459 75.2384C440.965 69.7067 444.864 54.2407 447.69 49.8657ZM445.489 67.0519L449.864 67.3948L455.287 67.3046C454.474 65.4061 450.665 54.382 450.094 54.0139C448.697 58.0761 447.1 63.1492 445.489 67.0519Z"/><path d="M726.842 49.5063C731.296 49.2717 738.258 52.4147 738.59 57.1205C738.366 57.6262 738.306 57.9998 737.876 58.2716L737.816 58.3091C737.097 58.7635 735.314 58.6077 734.4 58.5792C733.443 56.9326 731.786 54.3025 729.845 53.818C726.826 53.0643 722.321 54.4274 721.436 57.6975C721.507 63.1564 733.954 63.6323 736.935 68.05C742.663 76.5395 734.364 82.6665 725.965 82.1825C722.3 81.6961 714.459 76.216 717.005 72.3866C718.166 71.6558 719.921 71.9744 721.338 72.0756C722.213 79.6931 729.986 80.1362 733.567 74.9677C737.478 69.3233 724.906 67.64 721.473 65.4965C715.702 61.8931 716.434 57.6987 719.53 52.2881C722.318 50.5335 723.587 49.9431 726.842 49.5063Z"/><path d="M529.136 49.8798L551.81 49.9023C551.923 52.7429 551.833 56.1987 551.829 59.0855C550.742 59.1787 548.651 59.067 547.471 59.0343L547.49 53.778C544.341 53.9335 539.657 53.7357 536.395 53.6998L536.382 63.6807C539.814 63.7454 543.685 62.9679 546.497 64.0598C547.325 65.0993 547.083 65.4379 547.157 66.942C546.244 67.7527 538.167 67.4246 536.327 67.4093C536.504 70.6997 536.174 73.8646 536.364 77.3537C537.219 78.6063 537.87 77.3633 539.193 78.4289C539.494 79.6881 539.618 80.7824 538.446 81.5159C536.631 81.557 530.419 81.8755 529.162 81.0608L528.921 79.2555C529.682 77.6519 529.938 79.0541 531.463 77.4807C532.395 75.6128 532.1 57.8211 531.679 54.5207C531.559 53.5821 530.617 53.8205 529.26 53.0429C528.742 52.1277 529.01 50.94 529.136 49.8798Z"/><path d="M66.9621 79.4081C70.7403 79.7492 77.4593 79.5555 81.4504 79.5622C81.639 83.2701 81.4978 87.2526 81.4277 90.9874C84.7944 91.0466 88.1619 91.0611 91.529 91.0307C91.4447 92.5481 91.467 94.365 91.4466 95.9088C86.4825 95.8731 81.5181 95.9214 76.5556 96.0537C76.4752 92.2734 76.3847 88.607 76.4869 84.8269L66.9789 84.7481L66.9621 79.4081Z"/><path d="M27.0355 32.4316C31.5118 32.6235 37.4536 32.4647 42.0373 32.4656C41.974 36.1443 41.9611 39.8236 41.9985 43.5026C45.146 43.4862 48.3664 43.5497 51.5203 43.578L51.4976 48.6485C46.7362 48.858 41.7213 48.7425 36.9367 48.7057L37.0656 37.5773L27.1557 37.4985C27.0289 35.8792 27.0497 34.0727 27.0355 32.4316Z"/><path d="M95.2236 61.5122L100.406 61.5273C100.56 66.3833 100.479 71.6631 100.499 76.5513L91.1167 76.5143C91.3321 78.8573 91.2514 83.2468 91.2767 85.7446C90.6751 85.93 86.9455 85.9003 86.0678 85.9074C86.0868 80.9979 86.0735 76.0884 86.0278 71.1792C88.7899 71.3156 92.5067 71.1949 95.3403 71.1788L95.2236 61.5122Z"/><path d="M56.7157 79.2458L62.1604 79.2481C62.1936 82.2651 61.9855 85.9685 61.8832 89.0117C64.5694 89.1884 68.5164 89.0914 71.2964 89.1031C71.2603 94.0213 71.2751 98.9397 71.3409 103.858L66.2349 103.727L66.1994 94.374L56.7684 94.3647C56.593 89.4011 56.6905 84.2275 56.7157 79.2458Z"/><path d="M37.5509 91.0028L51.9497 90.9859L51.9837 100.216L61.9713 100.271L62.0247 105.29C60.671 105.733 49.2815 105.535 47.1142 105.517L47.0753 96.4631C43.9043 96.3502 40.7313 96.301 37.5583 96.3154L37.5509 91.0028Z"/><path d="M39.1392 61.708L44.138 61.7298L44.3216 67.0743L32.7597 67.0141C32.8572 69.9812 32.7754 73.4124 32.7757 76.4161C30.5514 76.2628 27.3958 76.3428 25.1031 76.3311L19.8819 76.3213L19.761 71.3047C22.3021 71.1925 25.2693 71.2234 27.8446 71.1879C27.6253 67.8149 27.6944 65.1507 27.9449 61.7987C31.5635 61.6865 35.4943 61.7352 39.1392 61.708Z"/><path d="M470.308 49.9208C471.966 49.9047 478.775 49.5867 479.711 50.4719C480.276 51.6046 480.348 51.3173 480.109 52.3797C479.504 53.1726 478.118 53.4898 477.132 53.8171C476.64 54.6325 476.635 75.1331 476.943 77.2936C477.709 78.4442 477.903 77.5958 479.733 78.3167C480.182 79.2983 479.784 80.8218 478.993 81.527C477.033 81.5471 470.92 81.9039 469.653 80.9475C469.167 79.8715 469.111 80.1731 469.384 79.1754C470.133 78.2535 471.458 77.9646 472.604 77.5951C473.052 76.6407 472.452 59.0169 472.693 56.5057C473.064 52.6598 471.408 54.1861 469.869 53.1025C469.367 51.9053 469.327 50.8002 470.308 49.9208Z"/><path d="M36.8939 71.9659L41.8719 72.0055C41.4597 75.8995 41.7586 82.2782 41.6637 86.583L32.5366 86.4696C32.7055 89.2844 32.5422 93.5654 32.5155 96.4865L27.5948 96.4974C27.3087 91.2917 27.4518 86.7011 27.5926 81.5072L36.7886 81.4616C36.7552 78.3904 36.6395 75.0049 36.8939 71.9659Z"/><path d="M47.391 24.714L52.2645 24.7132L52.3715 34.2084L61.53 34.2655L61.5239 49.2614L56.529 49.3198C56.3607 46.2465 56.4115 42.524 56.3769 39.4003C53.4126 39.2745 50.2298 39.3383 47.248 39.343C47.045 34.6691 47.2099 29.3771 47.391 24.714Z"/><path d="M28.3211 42.5324L32.6923 42.45C32.8912 47.0602 32.7727 52.4221 32.7814 57.0874L22.9262 56.9217C22.9778 60.2821 23.0124 63.6427 23.03 67.0035L18.0689 66.9938C18.104 61.9923 18.1012 56.9907 18.0605 51.9892L27.7285 51.9924C27.6351 49.775 27.196 44.2048 28.3211 42.5324Z"/><path d="M56.5763 23.0949C61.4272 23.2345 66.6522 23.0988 71.5305 23.0581L71.4637 32.1935C74.4613 32.3467 77.9672 32.3182 81.0058 32.3675L80.9891 37.2987L66.2376 37.3025L66.274 28.0368L56.5545 27.994L56.5763 23.0949Z"/><path d="M85.7697 52.2613C90.0592 52.2757 94.3486 52.3152 98.6376 52.38L98.6264 57.3898C96.0656 57.3637 93.5055 57.2902 90.9475 57.1694C90.859 60.2862 91.7209 63.7913 90.5121 66.1234C89.3723 66.8111 88.9986 66.5652 87.531 66.5377C83.1279 66.616 78.7237 66.5953 74.3216 66.4757L74.3077 61.5503C78.1334 61.5524 81.959 61.4977 85.7831 61.3864C85.6291 58.4491 85.7343 55.2217 85.7697 52.2613Z"/><path d="M85.973 31.9546L90.9368 32.0501C90.8696 37.0317 90.9269 42.1038 90.9347 47.0929C88.657 46.8709 84.1809 46.9644 81.7336 46.9511C81.8628 49.8527 81.7182 53.5472 81.6718 56.5107C80.2332 56.4442 78.0987 56.5909 76.603 56.6536L76.6389 41.9782C79.7558 42.0145 82.9255 41.9842 86.0473 41.9832C86.1441 38.9201 86.0008 35.0775 85.973 31.9546Z"/><path d="M66.2983 42.7299L71.2159 42.7321C71.366 47.4858 71.2779 52.8694 71.3577 57.7256C68.6438 57.5964 64.8074 57.7209 62.0042 57.7221L61.6752 64.3811L56.7123 64.3608C56.6141 61.0159 56.6681 55.7048 57.1367 52.4796C59.6417 52.6479 63.6703 52.5164 66.2898 52.5038L66.2983 42.7299Z"/><path d="M47.1467 68.9238C51.6673 69.1626 57.2332 69.0029 61.8295 68.9888C61.5796 70.6632 61.7124 72.3342 61.7846 74.0257C59.76 73.9724 54.0271 73.695 52.461 74.2337L52.3191 75.0658L52.287 85.6666L47.4896 85.7584C47.0192 81.5534 47.1737 73.474 47.1467 68.9238Z"/><path d="M37.607 52.2898L52.6281 52.3163L52.789 64.0925L47.5075 64.0636L47.4898 57.4487C44.2445 57.3685 40.8677 57.4013 37.611 57.39L37.607 52.2898Z"/><path d="M65.8452 64.2411L70.7042 64.2425L70.7219 70.7539L80.6822 70.7465C80.8019 72.2527 81.1812 74.5435 80.4921 75.6708C76.3164 75.9626 69.8952 75.7723 65.5712 75.786C65.6088 73.9386 65.5353 65.5224 65.8452 64.2411Z"/></svg>